<svg width="96" height="96" viewBox="0 0 96 96" xmlns="http://www.w3.org/2000/svg" role="img" aria-label="CyberAlex favicon">
  <defs>
    <linearGradient id="fav-a" x1="0%" y1="0%" x2="100%" y2="100%">
      <stop offset="0%" stop-color="#8fd0ff" />
      <stop offset="100%" stop-color="#4c6bff" />
    </linearGradient>
  </defs>
  <rect width="96" height="96" rx="22" fill="#0b1020" />
  <rect x="6" y="6" width="84" height="84" rx="18" fill="#0f172a" stroke="#1f2b46" stroke-width="4" />
  <path d="M28 30c0-3.3 2.7-6 6-6h22c11 0 20 9 20 20s-9 20-20 20h-6v10H34c-3.3 0-6-2.7-6-6V30Z" fill="url(#fav-a)" opacity="0.95" />
  <path d="M52 26h14c3.3 0 6 2.7 6 6v32c0 3.3-2.7 6-6 6H46l6-8h12c1.7 0 3-1.3 3-3V35c0-1.7-1.3-3-3-3H52V26Z" fill="#b5d8ff" opacity="0.9" />
  <circle cx="40" cy="34" r="3" fill="#0b1020" />
</svg>
