<svg width="128" height="128" viewBox="0 0 128 128" xmlns="http://www.w3.org/2000/svg" role="img" aria-label="CyberAlex shield logo">
  <defs>
    <linearGradient id="ca-gradient" x1="0%" y1="0%" x2="100%" y2="100%">
      <stop offset="0%" stop-color="#8fd0ff" />
      <stop offset="100%" stop-color="#4c6bff" />
    </linearGradient>
    <linearGradient id="ca-glow" x1="0%" y1="0%" x2="0%" y2="100%">
      <stop offset="0%" stop-color="#111827" stop-opacity="0.95" />
      <stop offset="100%" stop-color="#0b1020" stop-opacity="1" />
    </linearGradient>
  </defs>
  <rect width="128" height="128" rx="28" fill="#0c1222" />
  <rect x="6" y="6" width="116" height="116" rx="24" fill="url(#ca-glow)" stroke="#1f2b46" stroke-width="4" />
  <path d="M28 38c0-3.3 2.7-6 6-6h30c17.1 0 31 13.9 31 31s-13.9 31-31 31h-8v10h-22c-3.3 0-6-2.7-6-6V38Z" fill="url(#ca-gradient)" opacity="0.9" />
  <path d="M69 32h19c3.3 0 6 2.7 6 6v50c0 3.3-2.7 6-6 6H56l7.4-10H85c1.7 0 3-1.3 3-3V45c0-1.7-1.3-3-3-3H69V32Z" fill="#b5d8ff" opacity="0.9" />
  <path d="M46 44h11c5.5 0 10 4.5 10 10s-4.5 10-10 10h-7v12h-4c-3.3 0-6-2.7-6-6V50c0-3.3 2.7-6 6-6Z" fill="#0c1222" />
</svg>
