<svg width="96" height="96" viewBox="0 0 96 96" xmlns="http://www.w3.org/2000/svg" role="img" aria-label="CyberAlex logo">
  <defs>
    <linearGradient id="gradLogo" x1="0" y1="0" x2="1" y2="1">
      <stop offset="0%" stop-color="#7cb7ff" />
      <stop offset="100%" stop-color="#4c5cd5" />
    </linearGradient>
  </defs>
  <rect width="96" height="96" rx="22" fill="#0f141f" stroke="url(#gradLogo)" stroke-width="4" />
  <path d="M28 32C28 28.6863 30.6863 26 34 26H46C55.9411 26 64 34.0589 64 44C64 53.9411 55.9411 62 46 62H40V70H34C30.6863 70 28 67.3137 28 64V32Z" fill="url(#gradLogo)" opacity="0.9" />
  <path d="M54 26H62C65.3137 26 68 28.6863 68 32V52C68 55.3137 65.3137 58 62 58H50L54 52.5H60C61.6569 52.5 63 51.1569 63 49.5V34.5C63 32.8431 61.6569 31.5 60 31.5H56.5L54 26Z" fill="#7cb7ff" opacity="0.85" />
  <circle cx="38" cy="32" r="3" fill="#0f141f" />
  <circle cx="60" cy="48" r="2.5" fill="#0f141f" />
</svg>
