<svg width="800" height="480" viewBox="0 0 800 480" fill="none" xmlns="http://www.w3.org/2000/svg" role="img" aria-label="Abstract build illustration">
  <defs>
    <linearGradient id="bg2" x1="0" y1="0" x2="1" y2="1">
      <stop offset="0%" stop-color="#0f1724" />
      <stop offset="100%" stop-color="#131c2c" />
    </linearGradient>
    <linearGradient id="bars" x1="0" y1="1" x2="1" y2="0">
      <stop offset="0%" stop-color="#7cb7ff" />
      <stop offset="100%" stop-color="#8de3cf" />
    </linearGradient>
  </defs>
  <rect width="800" height="480" rx="32" fill="url(#bg2)" />
  <g fill="url(#bars)" opacity="0.85">
    <rect x="140" y="260" width="60" height="120" rx="12" />
    <rect x="240" y="210" width="70" height="170" rx="12" />
    <rect x="350" y="170" width="70" height="210" rx="12" />
    <rect x="460" y="140" width="70" height="240" rx="12" />
    <rect x="570" y="200" width="70" height="180" rx="12" />
  </g>
  <g fill="none" stroke="#7cb7ff" stroke-width="4" stroke-linecap="round" opacity="0.6">
    <path d="M120 340C220 320 320 220 420 240C520 260 620 180 680 220" />
  </g>
  <g fill="#1f2c3d" stroke="#7cb7ff" stroke-width="3">
    <circle cx="200" cy="250" r="10" />
    <circle cx="310" cy="210" r="10" />
    <circle cx="420" cy="230" r="10" />
    <circle cx="520" cy="190" r="10" />
    <circle cx="640" cy="220" r="10" />
  </g>
</svg>
