<svg width="800" height="480" viewBox="0 0 800 480" fill="none" xmlns="http://www.w3.org/2000/svg" role="img" aria-label="Abstract collaboration illustration">
  <defs>
    <linearGradient id="bg" x1="0" y1="0" x2="1" y2="1">
      <stop offset="0%" stop-color="#142033" />
      <stop offset="100%" stop-color="#0b1220" />
    </linearGradient>
    <linearGradient id="accent" x1="0" x2="1" y1="0" y2="0">
      <stop offset="0%" stop-color="#7cb7ff" />
      <stop offset="100%" stop-color="#6ad1c8" />
    </linearGradient>
  </defs>
  <rect width="800" height="480" rx="32" fill="url(#bg)" />
  <g fill="none" stroke="url(#accent)" stroke-width="10" stroke-linecap="round" opacity="0.4">
    <path d="M140 200C220 140 320 140 400 200C480 260 580 260 660 200" />
    <path d="M160 300C260 240 320 320 400 280C480 240 540 320 640 280" />
  </g>
  <g>
    <circle cx="200" cy="220" r="60" fill="#122945" stroke="#7cb7ff" stroke-width="6" />
    <circle cx="400" cy="260" r="70" fill="#0d233d" stroke="#6ad1c8" stroke-width="6" />
    <circle cx="600" cy="220" r="60" fill="#122945" stroke="#7cb7ff" stroke-width="6" />
    <path d="M260 220C300 200 340 200 400 260" stroke="#6ad1c8" stroke-width="8" stroke-linecap="round" />
    <path d="M540 220C500 200 460 200 400 260" stroke="#6ad1c8" stroke-width="8" stroke-linecap="round" />
  </g>
  <g fill="#fff" opacity="0.9">
    <circle cx="200" cy="220" r="10" />
    <circle cx="400" cy="260" r="12" />
    <circle cx="600" cy="220" r="10" />
  </g>
</svg>
