<svg xmlns="http://www.w3.org/2000/svg" viewBox="0 0 320 180" role="img" aria-labelledby="title desc">
  <title id="title">Car ownership costs illustration</title>
  <desc id="desc">Stylised car silhouette with stacked documents and currency symbols to represent vehicle ownership modelling.</desc>
  <defs>
    <linearGradient id="bg" x1="0" x2="0" y1="0" y2="1">
      <stop offset="0" stop-color="#0f1722" />
      <stop offset="1" stop-color="#192433" />
    </linearGradient>
    <linearGradient id="panel" x1="0" x2="1" y1="0" y2="1">
      <stop offset="0" stop-color="#2a3a50" />
      <stop offset="1" stop-color="#1c2735" />
    </linearGradient>
  </defs>
  <rect width="320" height="180" rx="12" fill="url(#bg)" />
  <rect x="18" y="30" width="196" height="120" rx="12" fill="url(#panel)" stroke="#30435c" stroke-width="3" />
  <rect x="210" y="46" width="24" height="92" rx="6" fill="#2f4058" />
  <rect x="242" y="64" width="24" height="74" rx="6" fill="#35506a" />
  <rect x="274" y="80" width="24" height="58" rx="6" fill="#3f6280" />
  <g transform="translate(44 60)">
    <path d="M16 64c3-10 8-18 20-20l44-8c16-3 30-2 46 5l26 12c7 3 10 8 12 15l4 18H10l6-22z" fill="#5cc7ff" stroke="#9be0ff" stroke-width="3" stroke-linejoin="round" />
    <path d="M58 40c4-7 10-13 20-15 12-3 24 1 34 7l16 12c5 4 6 9 4 15H54c-2-6-1-11 4-19z" fill="#0d121a" opacity="0.85" />
    <rect x="72" y="38" width="28" height="12" rx="6" fill="#c5ecff" opacity="0.9" />
    <rect x="108" y="40" width="26" height="12" rx="6" fill="#a7dcff" opacity="0.9" />
    <circle cx="38" cy="70" r="14" fill="#0d1218" stroke="#9be0ff" stroke-width="4" />
    <circle cx="38" cy="70" r="7" fill="#18222e" />
    <circle cx="146" cy="70" r="14" fill="#0d1218" stroke="#9be0ff" stroke-width="4" />
    <circle cx="146" cy="70" r="7" fill="#18222e" />
    <rect x="16" y="58" width="16" height="8" rx="3" fill="#ffe595" />
    <rect x="174" y="58" width="18" height="8" rx="3" fill="#ffd066" />
  </g>
  <g transform="translate(32 40)">
    <rect x="0" y="0" width="84" height="64" rx="8" fill="#1f2b3a" stroke="#2f3f55" stroke-width="3" />
    <path d="M18 22h48M18 36h40M18 50h32" stroke="#9ad8ff" stroke-width="4" stroke-linecap="round" />
    <circle cx="66" cy="18" r="4" fill="#ffd96a" />
  </g>
  <g transform="translate(226 30)" fill="#a7e1ff">
    <text x="0" y="18" font-family="'Inter', 'Segoe UI', sans-serif" font-size="18" font-weight="700">£</text>
    <text x="14" y="38" font-family="'Inter', 'Segoe UI', sans-serif" font-size="18" font-weight="700">£</text>
    <text x="-6" y="58" font-family="'Inter', 'Segoe UI', sans-serif" font-size="18" font-weight="700">£</text>
  </g>
</svg>
