<svg width="800" height="480" viewBox="0 0 800 480" fill="none" xmlns="http://www.w3.org/2000/svg" role="img" aria-label="Abstract network nodes">
  <defs>
    <linearGradient id="grad" x1="0" x2="1" y1="0" y2="1">
      <stop offset="0%" stop-color="#7cb7ff" stop-opacity="0.95" />
      <stop offset="100%" stop-color="#4c5cd5" stop-opacity="0.9" />
    </linearGradient>
    <filter id="shadow" x="-20%" y="-20%" width="140%" height="140%">
      <feDropShadow dx="0" dy="8" stdDeviation="12" flood-color="#0d6efd" flood-opacity="0.35" />
    </filter>
  </defs>
  <rect width="800" height="480" rx="32" fill="#10131a" />
  <g stroke="url(#grad)" stroke-width="2" opacity="0.6">
    <path d="M120 360C220 320 260 200 360 180C460 160 560 230 640 200" />
    <path d="M100 180C190 200 260 140 340 160C430 180 520 120 700 150" />
  </g>
  <g fill="#7cb7ff" filter="url(#shadow)">
    <circle cx="120" cy="360" r="14" />
    <circle cx="220" cy="300" r="12" />
    <circle cx="360" cy="180" r="15" />
    <circle cx="520" cy="220" r="13" />
    <circle cx="640" cy="200" r="11" />
    <circle cx="700" cy="150" r="14" />
    <circle cx="340" cy="160" r="10" />
  </g>
  <g stroke="#88d1ff" stroke-width="2" opacity="0.65">
    <line x1="120" y1="360" x2="220" y2="300" />
    <line x1="220" y1="300" x2="360" y2="180" />
    <line x1="360" y1="180" x2="520" y2="220" />
    <line x1="520" y1="220" x2="640" y2="200" />
    <line x1="640" y1="200" x2="700" y2="150" />
    <line x1="340" y1="160" x2="520" y2="220" />
  </g>
</svg>
