<svg xmlns="http://www.w3.org/2000/svg" viewBox="0 0 320 180" role="img" aria-labelledby="title desc">
  <title id="title">Savings and loan illustration</title>
  <desc id="desc">Stylised coins, chart and percentage sign representing budgeting and interest modelling.</desc>
  <defs>
    <linearGradient id="bg" x1="0" x2="0" y1="0" y2="1">
      <stop offset="0" stop-color="#10141c" />
      <stop offset="1" stop-color="#1b2432" />
    </linearGradient>
    <linearGradient id="coin" x1="0" x2="0" y1="0" y2="1">
      <stop offset="0" stop-color="#ffd66c" />
      <stop offset="1" stop-color="#f2b444" />
    </linearGradient>
  </defs>
  <rect width="320" height="180" rx="12" fill="url(#bg)" />
  <rect x="24" y="36" width="272" height="108" rx="10" fill="#131a25" stroke="#253448" stroke-width="3" />
  <path d="M60 126l44-54 40 34 52-70 44 50" fill="none" stroke="#63d1ff" stroke-width="5" stroke-linecap="round" stroke-linejoin="round" />
  <circle cx="104" cy="72" r="6" fill="#63d1ff" />
  <circle cx="144" cy="104" r="6" fill="#63d1ff" />
  <circle cx="196" cy="48" r="6" fill="#63d1ff" />
  <circle cx="240" cy="98" r="6" fill="#63d1ff" />
  <rect x="54" y="110" width="24" height="24" rx="4" fill="#2b3950" />
  <rect x="128" y="92" width="24" height="42" rx="4" fill="#2b3950" />
  <rect x="196" y="62" width="24" height="72" rx="4" fill="#2b3950" />
  <rect x="252" y="88" width="24" height="46" rx="4" fill="#2b3950" />
  <g transform="translate(36 32)">
    <circle cx="36" cy="92" r="24" fill="url(#coin)" stroke="#ffd984" stroke-width="3" />
    <path d="M22 92c0 8 7 14 14 14h8c7 0 14-6 14-14s-7-14-14-14h-8c-7 0-14-6-14-14s7-14 14-14h10" fill="none" stroke="#815100" stroke-width="4" stroke-linecap="round" />
  </g>
  <g transform="translate(214 28)" fill="#9cd8ff">
    <text x="0" y="24" font-family="'Inter', 'Segoe UI', sans-serif" font-size="28" font-weight="700" opacity="0.9">% </text>
    <circle cx="64" cy="16" r="12" opacity="0.25" />
    <circle cx="54" cy="44" r="16" opacity="0.18" />
  </g>
</svg>
