<svg width="160" height="160" viewBox="0 0 160 160" xmlns="http://www.w3.org/2000/svg" role="img" aria-label="CyberAlex spark logo">
  <defs>
    <linearGradient id="spark-a" x1="0%" y1="0%" x2="100%" y2="100%">
      <stop offset="0%" stop-color="#9ff0ff" />
      <stop offset="100%" stop-color="#6c7cff" />
    </linearGradient>
  </defs>
  <rect width="160" height="160" rx="36" fill="#0b1020" />
  <g fill="none" stroke-linecap="round" stroke-linejoin="round">
    <circle cx="80" cy="80" r="60" stroke="#18233d" stroke-width="8" />
    <circle cx="80" cy="80" r="38" stroke="#22365f" stroke-width="6" stroke-dasharray="8 10" />
    <path d="M48 82c0-17.7 14.3-32 32-32h10c8.8 0 16-7.2 16-16v-6" stroke="url(#spark-a)" stroke-width="9" />
    <path d="M60 122 78 88h-8c-4.4 0-8-3.6-8-8s3.6-8 8-8h28c5.5 0 10 4.5 10 10v14c0 11-9 20-20 20H60Z" stroke="url(#spark-a)" stroke-width="9" fill="#0b1020" />
    <path d="M112 42 104 30" stroke="#9ff0ff" stroke-width="7" />
    <path d="M120 52 134 46" stroke="#6c7cff" stroke-width="7" />
    <path d="M44 52 30 48" stroke="#6c7cff" stroke-width="6" />
  </g>
</svg>
